# xmcd
#
# Track frame offsets:
# 150
# 17614
# 36516
# 56866
# 74947
# 88463
# 101278
# 119147
# 146193
# 169354
# 195123
# 212738
# 234026
# 252652
# 276810
# 294897
# 312498
# 330228
# 344461
#
# Disc length: 4731 seconds
#
# Revision: 0
# Processed by: cddbd v1.4PL0 Copyright (c) Steve Scherf et al.
# Submitted via: Audion 3.0.2 (http://www.panic.com/audion/)
#
DISCID=2e127913
DTITLE=rock mix - SAAS
DYEAR=1900
DGENRE=
TTITLE0=FEFF
TTITLE1=vasvv
TTITLE2=kjlkjh
TTITLE3=lkjhlkjh
TTITLE4=lkjlkjh
TTITLE5=lkjj
TTITLE6=lkjhlkj
TTITLE7=lkjlkjh
TTITLE8=lkjlkj
TTITLE9=lkjhlkh
TTITLE10=lkhlkh
TTITLE11=lkjlkhj
TTITLE12=lkjlkhj
TTITLE13=lkjkjh
TTITLE14=lkhkj
TTITLE15=lkjhhlkj
TTITLE16=lkjhlkjh
TTITLE17=kljhlkhj
TTITLE18=lkjkhj
EXTD=
EXTT0=
EXTT1=
EXTT2=
EXTT3=
EXTT4=
EXTT5=
EXTT6=
EXTT7=
EXTT8=
EXTT9=
EXTT10=
EXTT11=
EXTT12=
EXTT13=
EXTT14=
EXTT15=
EXTT16=
EXTT17=
EXTT18=
PLAYORDER=
